<svg xmlns="http://www.w3.org/2000/svg" width="25" height="25" viewBox="0 0 25 25" fill="none">
  <circle cx="12.3994" cy="12.1992" r="12" fill="white"/>
  <mask id="mask0_615_2779" style="mask-type:luminance" maskUnits="userSpaceOnUse" x="3" y="3" width="19" height="19">
    <rect x="3.39941" y="3.19922" width="18" height="18" fill="white"/>
  </mask>
  <g mask="url(#mask0_615_2779)">
    <path fill-rule="evenodd" clip-rule="evenodd" d="M19.7535 10.7303H19.1494V10.6992H12.3994V13.6992H16.638C16.0197 15.4456 14.358 16.6992 12.3994 16.6992C9.91429 16.6992 7.89941 14.6843 7.89941 12.1992C7.89941 9.71409 9.91429 7.69922 12.3994 7.69922C13.5465 7.69922 14.5902 8.13197 15.3848 8.83884L17.5062 6.71747C16.1667 5.46909 14.3749 4.69922 12.3994 4.69922C8.25754 4.69922 4.89941 8.05734 4.89941 12.1992C4.89941 16.3411 8.25754 19.6992 12.3994 19.6992C16.5413 19.6992 19.8994 16.3411 19.8994 12.1992C19.8994 11.6963 19.8477 11.2055 19.7535 10.7303V10.7303Z" fill="#FFC107"/>
    <path fill-rule="evenodd" clip-rule="evenodd" d="M5.76367 8.70834L8.2278 10.5155C8.89455 8.86472 10.5093 7.69922 12.3989 7.69922C13.546 7.69922 14.5897 8.13197 15.3843 8.83884L17.5057 6.71747C16.1662 5.46909 14.3744 4.69922 12.3989 4.69922C9.51817 4.69922 7.01992 6.32559 5.76367 8.70834V8.70834Z" fill="#FF3D00"/>
    <path fill-rule="evenodd" clip-rule="evenodd" d="M12.3995 19.6985C14.3368 19.6985 16.097 18.9571 17.4279 17.7515L15.1067 15.7872C14.3537 16.3576 13.4177 16.6985 12.3995 16.6985C10.4488 16.6985 8.79241 15.4546 8.16841 13.7188L5.72266 15.6031C6.96391 18.032 9.48466 19.6985 12.3995 19.6985V19.6985Z" fill="#4CAF50"/>
    <path fill-rule="evenodd" clip-rule="evenodd" d="M19.7535 10.7303H19.1494V10.6992H12.3994V13.6992H16.638C16.341 14.5381 15.8014 15.2615 15.1054 15.7883C15.1058 15.788 15.1062 15.788 15.1065 15.7876L17.4278 17.7518C17.2635 17.9011 19.8994 15.9492 19.8994 12.1992C19.8994 11.6963 19.8477 11.2055 19.7535 10.7303V10.7303Z" fill="#1976D2"/>
  </g>
</svg>