<svg width="21" height="21" viewBox="0 0 21 21" fill="none" xmlns="http://www.w3.org/2000/svg">
<path d="M1.08549 0.0792205C0.959941 0.0164265 0.819288 -0.00987136 0.679532 0.00331827C0.539775 0.0165079 0.406525 0.0686556 0.29494 0.153829C0.183354 0.239003 0.0979126 0.353784 0.0483339 0.485115C-0.0012448 0.616446 -0.0129703 0.759055 0.0144914 0.896721L2.11899 8.17172C2.15823 8.30729 2.23493 8.42904 2.34027 8.52298C2.44562 8.61691 2.57532 8.67921 2.71449 8.70272L11.2495 10.1322C11.6515 10.2117 11.6515 10.7877 11.2495 10.8672L2.71449 12.2967C2.57532 12.3202 2.44562 12.3825 2.34027 12.4765C2.23493 12.5704 2.15823 12.6921 2.11899 12.8277L0.0144914 20.1027C-0.0129703 20.2404 -0.0012448 20.383 0.0483339 20.5143C0.0979126 20.6457 0.183354 20.7604 0.29494 20.8456C0.406525 20.9308 0.539775 20.9829 0.679532 20.9961C0.819288 21.0093 0.959941 20.983 1.08549 20.9202L20.5855 11.1702C20.7099 11.1079 20.8145 11.0121 20.8876 10.8937C20.9607 10.7753 20.9994 10.6389 20.9994 10.4997C20.9994 10.3606 20.9607 10.2241 20.8876 10.1057C20.8145 9.98731 20.7099 9.89157 20.5855 9.82922L1.08549 0.0792205V0.0792205Z" fill="#9969FF"/>
</svg>
