<svg width="21" height="22" viewBox="0 0 21 22" fill="none" xmlns="http://www.w3.org/2000/svg">
<path d="M1.08549 0.57922C0.959941 0.516427 0.819288 0.490129 0.679532 0.503318C0.539775 0.516508 0.406525 0.568656 0.29494 0.653829C0.183354 0.739003 0.0979126 0.853784 0.0483339 0.985115C-0.0012448 1.11645 -0.0129703 1.25906 0.0144914 1.39672L2.11899 8.67172C2.15823 8.80729 2.23493 8.92904 2.34027 9.02298C2.44562 9.11691 2.57532 9.17921 2.71449 9.20272L11.2495 10.6322C11.6515 10.7117 11.6515 11.2877 11.2495 11.3672L2.71449 12.7967C2.57532 12.8202 2.44562 12.8825 2.34027 12.9765C2.23493 13.0704 2.15823 13.1921 2.11899 13.3277L0.0144914 20.6027C-0.0129703 20.7404 -0.0012448 20.883 0.0483339 21.0143C0.0979126 21.1457 0.183354 21.2604 0.29494 21.3456C0.406525 21.4308 0.539775 21.4829 0.679532 21.4961C0.819288 21.5093 0.959941 21.483 1.08549 21.4202L20.5855 11.6702C20.7099 11.6079 20.8145 11.5121 20.8876 11.3937C20.9607 11.2753 20.9994 11.1389 20.9994 10.9997C20.9994 10.8606 20.9607 10.7241 20.8876 10.6057C20.8145 10.4873 20.7099 10.3916 20.5855 10.3292L1.08549 0.57922Z" fill="#B4B1B9"/>
</svg>
