<svg width="146" height="42" viewBox="0 0 146 42" fill="none" xmlns="http://www.w3.org/2000/svg">
<path d="M62.4106 21.169H59.6319C59.5526 20.6901 59.4065 20.2658 59.1935 19.8962C58.9805 19.5214 58.7155 19.2038 58.3985 18.9435C58.0815 18.6832 57.72 18.488 57.3138 18.3578C56.9126 18.2225 56.4792 18.1548 56.0136 18.1548C55.1864 18.1548 54.4534 18.3734 53.8144 18.8107C53.1755 19.2428 52.6752 19.878 52.3136 20.7161C51.9521 21.5491 51.7713 22.5668 51.7713 23.7694C51.7713 24.9928 51.9521 26.0236 52.3136 26.8617C52.6802 27.6947 53.1804 28.3246 53.8144 28.7515C54.4534 29.1732 55.184 29.384 56.0062 29.384C56.4619 29.384 56.8878 29.3215 57.2841 29.1966C57.6853 29.0665 58.0444 28.8764 58.3614 28.6266C58.6834 28.3767 58.9533 28.0695 59.1712 27.7051C59.3941 27.3407 59.5477 26.9242 59.6319 26.4557L62.4106 26.4713C62.3066 27.2314 62.0812 27.9446 61.7345 28.6109C61.3927 29.2773 60.9445 29.8656 60.3897 30.3757C59.835 30.8807 59.1861 31.2764 58.4431 31.5627C57.7002 31.8438 56.8755 31.9844 55.969 31.9844C54.6317 31.9844 53.438 31.659 52.3879 31.0083C51.3379 30.3575 50.5107 29.4179 49.9064 28.1893C49.3021 26.9607 49 25.4874 49 23.7694C49 22.0462 49.3046 20.573 49.9139 19.3496C50.5231 18.121 51.3527 17.1813 52.4028 16.5305C53.4529 15.8798 54.6416 15.5544 55.969 15.5544C56.816 15.5544 57.6036 15.6794 58.3317 15.9293C59.0598 16.1791 59.7086 16.5462 60.2783 17.0303C60.8479 17.5093 61.3159 18.0975 61.6825 18.7951C62.054 19.4875 62.2967 20.2788 62.4106 21.169Z" fill="black"/>
<path d="M67.9239 15.7731V31.7657H65.2344V15.7731H67.9239Z" fill="black"/>
<path d="M76.0859 32C74.9715 32 74.0056 31.7423 73.1884 31.2269C72.3711 30.7115 71.7371 29.9905 71.2864 29.0639C70.8406 28.1372 70.6177 27.0544 70.6177 25.8153C70.6177 24.5763 70.8406 23.4909 71.2864 22.559C71.7371 21.6272 72.3711 20.9035 73.1884 20.3881C74.0056 19.8728 74.9715 19.6151 76.0859 19.6151C77.2004 19.6151 78.1663 19.8728 78.9835 20.3881C79.8008 20.9035 80.4323 21.6272 80.8781 22.559C81.3288 23.4909 81.5542 24.5763 81.5542 25.8153C81.5542 27.0544 81.3288 28.1372 80.8781 29.0639C80.4323 29.9905 79.8008 30.7115 78.9835 31.2269C78.1663 31.7423 77.2004 32 76.0859 32ZM76.1008 29.7354C76.7051 29.7354 77.2103 29.561 77.6165 29.2122C78.0226 28.8582 78.3248 28.3845 78.5229 27.791C78.726 27.1975 78.8275 26.5364 78.8275 25.8075C78.8275 25.0735 78.726 24.4097 78.5229 23.8163C78.3248 23.2176 78.0226 22.7412 77.6165 22.3872C77.2103 22.0332 76.7051 21.8562 76.1008 21.8562C75.4817 21.8562 74.9665 22.0332 74.5554 22.3872C74.1493 22.7412 73.8447 23.2176 73.6416 23.8163C73.4435 24.4097 73.3444 25.0735 73.3444 25.8075C73.3444 26.5364 73.4435 27.1975 73.6416 27.791C73.8447 28.3845 74.1493 28.8582 74.5554 29.2122C74.9665 29.561 75.4817 29.7354 76.1008 29.7354Z" fill="black"/>
<path d="M91.5291 26.7212V19.7712H94.2186V31.7657H91.6108V29.6339H91.4919C91.2343 30.3055 90.8109 30.8547 90.2214 31.2816C89.637 31.7085 88.9163 31.9219 88.0594 31.9219C87.3115 31.9219 86.6502 31.7475 86.0757 31.3987C85.5061 31.0447 85.0603 30.5319 84.7383 29.8604C84.4164 29.1836 84.2554 28.3663 84.2554 27.4084V19.7712H86.945V26.9711C86.945 27.7311 87.1431 28.335 87.5393 28.7827C87.9356 29.2304 88.4557 29.4543 89.0996 29.4543C89.4958 29.4543 89.8797 29.3528 90.2512 29.1497C90.6226 28.9467 90.9273 28.6448 91.165 28.2439C91.4077 27.8379 91.5291 27.3303 91.5291 26.7212Z" fill="black"/>
<path d="M101.638 31.9766C100.741 31.9766 99.9387 31.7345 99.2304 31.2503C98.5222 30.7662 97.9624 30.0634 97.5513 29.1419C97.1402 28.2205 96.9347 27.1012 96.9347 25.7841C96.9347 24.4514 97.1427 23.3269 97.5588 22.4107C97.9798 21.4892 98.5469 20.7942 99.2602 20.3257C99.9734 19.8519 100.768 19.6151 101.645 19.6151C102.314 19.6151 102.864 19.7348 103.294 19.9743C103.725 20.2085 104.067 20.4923 104.32 20.8254C104.572 21.1534 104.768 21.4632 104.907 21.7547H105.018V15.7731H107.715V31.7657H105.07V29.876H104.907C104.768 30.1675 104.567 30.4773 104.305 30.8052C104.042 31.128 103.696 31.4039 103.265 31.633C102.834 31.862 102.291 31.9766 101.638 31.9766ZM102.388 29.6573C102.958 29.6573 103.443 29.4959 103.844 29.1732C104.245 28.8452 104.55 28.3897 104.758 27.8066C104.966 27.2236 105.07 26.5442 105.07 25.7685C105.07 24.9928 104.966 24.3186 104.758 23.746C104.555 23.1733 104.253 22.7282 103.852 22.4107C103.455 22.0931 102.968 21.9343 102.388 21.9343C101.789 21.9343 101.288 22.0983 100.887 22.4263C100.486 22.7543 100.184 23.2072 99.9808 23.785C99.7778 24.3629 99.6762 25.024 99.6762 25.7685C99.6762 26.5181 99.7778 27.1871 99.9808 27.7754C100.189 28.3584 100.493 28.8192 100.895 29.1576C101.301 29.4907 101.799 29.6573 102.388 29.6573Z" fill="black"/>
<path d="M111.118 15.7731H114.492L119.009 27.3615H119.187L121.446 21.5673L123.704 15.7731H127.077V31.7657H124.432V20.7786H124.291L120.086 31.7189H118.11L113.905 20.7552H113.763V31.7657H111.118V15.7731Z" fill="#9969FF"/>
<path d="M130.379 31.7657V19.7712H133.068V31.7657H130.379ZM131.731 18.0689C131.305 18.0689 130.938 17.9205 130.631 17.6238C130.324 17.3218 130.171 16.96 130.171 16.5384C130.171 16.1115 130.324 15.7497 130.631 15.4529C130.938 15.151 131.305 15 131.731 15C132.162 15 132.528 15.151 132.83 15.4529C133.137 15.7497 133.291 16.1115 133.291 16.5384C133.291 16.96 133.137 17.3218 132.83 17.6238C132.528 17.9205 132.162 18.0689 131.731 18.0689Z" fill="#9969FF"/>
<path d="M138.451 19.7712L140.755 24.1989L143.095 19.7712H145.941L142.501 25.7685L146 31.7657H143.169L140.755 27.4474L138.362 31.7657H135.509L138.986 25.7685L135.598 19.7712H138.451Z" fill="#9969FF"/>
<path fill-rule="evenodd" clip-rule="evenodd" d="M16.3637 7.40569C19.141 6.89634 22.008 7.46206 24.3836 8.98818C26.3669 10.2623 27.8838 12.1262 28.733 14.3C29.7025 14.2039 30.6832 14.2463 31.6453 14.4279C33.0676 14.6963 34.4169 15.263 35.6044 16.0905C36.7919 16.918 37.7906 17.9876 38.535 19.2289C39.2793 20.4702 39.7523 21.8551 39.9228 23.2924C40.0933 24.7297 39.9575 26.1869 39.5243 27.5679C39.0911 28.9489 38.3703 30.2225 37.4094 31.3049C36.4485 32.3873 35.2692 33.2539 33.9493 33.8477C32.6293 34.4415 31.1985 34.749 29.7511 34.75H10.5001L10.4961 34.75C8.42388 34.7445 6.42494 33.9825 4.87488 32.6071C3.32483 31.2318 2.33035 29.3377 2.07829 27.2808C1.82624 25.2239 2.33395 23.1458 3.50605 21.4369C4.43853 20.0773 5.74044 19.0258 7.24568 18.3981C7.23491 16.0097 7.99382 13.6687 9.4274 11.7312C11.1068 9.46135 13.5865 7.91504 16.3637 7.40569ZM7.7927 21.4655C7.0757 21.8744 6.45412 22.4425 5.98007 23.1337C5.22148 24.2397 4.89289 25.5847 5.05602 26.9159C5.21915 28.2472 5.86278 29.473 6.86598 30.3631C7.86868 31.2528 9.16161 31.746 10.5021 31.75H29.7491C30.7729 31.7493 31.7849 31.5318 32.7185 31.1118C33.6521 30.6918 34.4862 30.0788 35.1659 29.3132C35.8456 28.5476 36.3554 27.6468 36.6618 26.67C36.9682 25.6931 37.0643 24.6625 36.9437 23.6459C36.8231 22.6292 36.4885 21.6497 35.962 20.7717C35.4356 19.8937 34.7291 19.1371 33.8892 18.5518C33.0493 17.9665 32.0949 17.5657 31.0889 17.3758C30.09 17.1873 29.0627 17.2109 28.0736 17.4451L25.7691 18.0723C24.9697 18.2899 24.1453 17.8183 23.9278 17.0189C23.7102 16.2196 24.1818 15.3952 24.9812 15.1777L25.7583 14.9661C25.115 13.561 24.0794 12.3585 22.7621 11.5122C21.0271 10.3976 18.9332 9.98448 16.9049 10.3565C14.8766 10.7285 13.0656 11.8578 11.8391 13.5155C10.622 15.1604 10.0707 17.2035 10.2943 19.2362L10.2955 19.243C10.3022 19.2778 10.3128 19.3314 10.3272 19.3995C10.3564 19.5367 10.4004 19.7282 10.4589 19.942C10.5859 20.4066 10.744 20.8354 10.8965 21.0791C11.3361 21.7813 11.1232 22.7069 10.421 23.1464C9.71884 23.586 8.79326 23.3731 8.35369 22.6709C8.11755 22.2937 7.93338 21.8632 7.7927 21.4655Z" fill="#9969FF"/>
</svg>
